<?xml version="1.0" encoding="utf-8"?>
<svg version="1.1" id="Layer_1" xmlns="http://www.w3.org/2000/svg" xmlns:xlink="http://www.w3.org/1999/xlink" x="0px" y="0px"
	 viewBox="-302.5 389 15 15" style="enable-background:new -302.5 389 15 15;" xml:space="preserve">
<path fill="#4C4C4C" d="M-295,389.2c0.8,0,1.4,0.6,1.4,1.4s-0.6,1.4-1.4,1.4s-1.4-0.6-1.4-1.4S-295.8,389.2-295,389.2"/>
<path fill="#4C4C4C" d="M-294.4,400.4c-0.3,0.8-1.1,1.4-2,1.4c-1.2,0-2.1-0.9-2.1-2.1c0-0.9,0.6-1.7,1.4-2v-1.4
	c-1.6,0.3-2.9,1.7-2.9,3.4c0,1.9,1.6,3.5,3.6,3.5c1.7,0,3.2-1.2,3.5-2.8H-294.4z M-290,396.9v-1.4c-1.1,0-2.2-0.5-2.9-1.3l-0.9-1
	c-0.1-0.1-0.3-0.2-0.4-0.3c0,0,0,0,0,0h0c-0.2-0.1-0.5-0.2-0.9-0.2c-0.8,0.1-1.3,0.7-1.3,1.4v4.1c0,0.8,0.6,1.4,1.4,1.4h3.6v3.5h1.4
	v-3.9c0-0.8-0.6-1.4-1.4-1.4h-2.1v-2.4C-292.6,396.2-291.2,396.8-290,396.9L-290,396.9z"/>
</svg>
