<svg width="58" height="58" viewBox="0 0 58 58" xmlns="http://www.w3.org/2000/svg"><title>ic_box_25_plus</title><defs><filter x="-50%" y="-50%" width="200%" height="200%" filterUnits="objectBoundingBox" id="a"><feOffset dy="2" in="SourceAlpha" result="shadowOffsetOuter1"/><feGaussianBlur stdDeviation="2" in="shadowOffsetOuter1" result="shadowBlurOuter1"/><feColorMatrix values="0 0 0 0 0 0 0 0 0 0 0 0 0 0 0 0 0 0 0.246405118 0" in="shadowBlurOuter1" result="shadowMatrixOuter1"/><feMerge><feMergeNode in="shadowMatrixOuter1"/><feMergeNode in="SourceGraphic"/></feMerge></filter></defs><g fill="none" fill-rule="evenodd" transform="scale(1.2)"><g filter="url(#a)" transform="translate(5 4)"><path d="M18 35.143C8.571 35.143.857 27.429.857 18S8.571.857 18 .857 35.143 8.571 35.143 18 27.429 35.143 18 35.143" fill="#4D5863"/><path d="M18 0C8.057 0 0 8.057 0 18s8.057 18 18 18 18-8.057 18-18S27.943 0 18 0m0 1.714C27 1.714 34.286 9 34.286 18 34.286 27 27 34.286 18 34.286 9 34.286 1.714 27 1.714 18 1.714 9 9 1.714 18 1.714" fill="#FFF"/><path fill="#4D5863" d="M21 12.857l-3 1.972-3-1.972 3-1.971z"/><path fill="#FFF" d="M26.016 12.473L18 7.295l-8.015 5.178L18 17.65z"/><path fill="#4D5863" d="M20.967 12.473L18 14.422l-2.967-1.95L18 10.525z"/><path fill="#FFF" d="M27.578 23.66L18 29.85V18.66l9.578-6.187z"/><path d="M26.5 14.178l.23-.148-.23.148zM18 5.277l-9.578 6.186.781.505L18 6.285l8.797 5.683.78-.505zm.781 12.879l.067.042v.924l7.652-4.944.23-.149 1.695-1.095v-.922l-.847-.548-.781.504.78.505z" fill="#4D5863"/><path d="M18 7.295l8.016 5.178L18 17.65l-8.016-5.178L18 7.295zm9.578 5.178L18 6.286l-8.797 5.683 9.578 6.186 8.797-5.682z" fill="#4D5863"/><path fill="#FFF" d="M17.152 28.291v-9.17L9.285 14.04l-.015-.01v9.17zM9.27 14.03l.015.009z"/><path fill="#4D5863" d="M18 19.669l.848-.548v-.923l-.067-.043 8.797-5.683-.781-.504-9.645 6.23v11.103l.848.547z"/><path fill="#4D5863" d="M28.425 12.934L26.73 14.03v9.17l-7.883 5.092v2.018l9.578-6.187zM26.5 14.178l-7.653 4.944zM8.422 23.66V13.482l-.848-.546v11.188l9.578 6.187V29.3z"/><path fill="#4D5863" d="M18.848 19.122l-.848.547v10.18l-.848-.549v1.01l.848.548.848-.548v-2.018z"/><path fill="#4D5863" d="M18.781 18.156l-.78.504v1.01l.847-.548v-.924zM8.422 12.473l.781-.505-.78-.504-.849.548v.922l.848.548z"/><path fill="#4D5863" d="M18.781 18.156l-9.578-6.188-.78.505L18 18.66zm-1.629.966v9.17L9.27 23.199v-9.17l-.848-.547v10.18L18 29.847v-10.18L9.285 14.04z"/><path fill="#4D5863" d="M8.422 12.473v1.009l.848.547.015.01L18 19.669v-1.008z"/></g><path d="M45.333 30H26.667C25.2 30 24 30.9 24 32v14c0 1.1 1.2 2 2.667 2h18.666C46.8 48 48 47.1 48 46V32c0-1.1-1.2-2-2.667-2z" fill="#4D5863"/><path fill="#FFF" d="M26 32h20v14H26z"/><path d="M39.094 41.4v-1.6c0-.888-.764-1.6-1.698-1.6h-1.698v-1.6h3.396V35H34v4.8h3.396v1.6H34V43h3.396c.934 0 1.698-.712 1.698-1.6zM42 38h-2v2h2v2h2v-2h2v-2h-2v-2h-2v2zm-8.906 3.4h-3.396v-1.6h1.698c.934 0 1.698-.712 1.698-1.6v-1.6c0-.888-.764-1.6-1.698-1.6H28v1.6h3.396v1.6h-1.698c-.934 0-1.698.712-1.698 1.6V43h5.094v-1.6z" fill="#4D5863"/></g></svg>
