<?xml version="1.0" encoding="UTF-8" standalone="no"?>
<svg width="24px" height="24px" viewBox="0 0 24 24" version="1.1" xmlns="http://www.w3.org/2000/svg" xmlns:xlink="http://www.w3.org/1999/xlink">
    <!-- Generator: Sketch 3.8.3 (29802) - http://www.bohemiancoding.com/sketch -->
    <title>ic_country</title>
    <desc>Created with Sketch.</desc>
    <defs></defs>
    <g id="Page-1" stroke="none" stroke-width="1" fill="none" fill-rule="evenodd">
        <g id="ic_country" fill="#666666">
            <g id="ic_australia" transform="translate(3.000000, 4.000000)">
                <path d="M16.943402,7.81995523 C16.7897869,7.28901358 16.5352531,6.8028142 16.257851,6.32606041 C15.9898945,5.86521499 15.6329505,5.47943716 15.2740181,5.09365933 C15.0125243,4.81277728 14.7719103,4.51548972 14.6317179,4.15506585 C14.5730558,4.00443353 14.5486961,3.83938425 14.5183708,3.67930633 C14.4104922,3.11008518 14.1703753,2.59157194 13.9073902,2.08151002 C13.6279995,1.54062564 13.3540774,0.996758438 13.2074222,0.400194784 C13.1761026,0.273425008 13.1542286,0.144666686 13.1278803,0.0169026369 C13.1144577,0.0109370003 13.1015321,0.00546850016 13.0881094,0 C12.9687967,0.218740006 12.8370556,0.431514376 12.7321598,0.657214292 C12.5203797,1.11259121 12.4468035,1.60127627 12.4045469,2.09791552 C12.3747187,2.44640812 12.3349478,2.79539785 12.156973,3.10958805 C12.0242376,3.34423642 11.912879,3.39146437 11.6578481,3.30893973 C11.2223566,3.167753 10.8569614,2.90476786 10.5015089,2.62736576 C10.3583336,2.51551007 10.2211239,2.39619734 10.0834172,2.27738175 C9.79308951,2.02682501 9.75828997,1.80162223 9.96360729,1.47599791 C10.0506062,1.33829113 10.1579876,1.21251563 10.2385237,1.07132889 C10.3359624,0.900811117 10.3354653,0.714882112 10.268849,0.530444516 C10.2400151,0.449411286 10.1863244,0.405663285 10.1013141,0.453885513 C9.80154083,0.623906155 9.49679623,0.572203971 9.18807454,0.486199378 C8.97828299,0.428034422 8.7679943,0.370863738 8.5547228,0.327612873 C8.18286478,0.251551007 7.89154287,0.407154694 7.64198041,0.667654156 C7.4068349,0.913736663 7.1731808,1.16180772 6.93505248,1.40441027 C6.53585196,1.81007355 6.04468122,1.9433061 5.50926534,1.79416519 C5.17668111,1.70120069 4.93159287,1.79963369 4.69545309,1.99401401 C4.17892839,2.41906562 3.75337966,2.90824781 3.54955374,3.56645638 C3.3631276,4.16898567 2.94404163,4.560232 2.37382621,4.81426869 C1.89359246,5.02803733 1.41186731,5.24379452 0.953010437,5.49882548 C0.467805332,5.7682734 0.114341367,6.16299968 0.0198854551,6.73967788 C0.0178969096,6.75210629 0.00695990929,6.76304329 0,6.77497456 L0,7.18461494 C0.0253539553,7.29398494 0.051205047,7.40285781 0.0770561386,7.51222781 C0.220728552,8.11972846 0.503102015,8.66806989 0.792435387,9.21491991 C0.974387301,9.55943542 1.15633922,9.90593947 1.31492572,10.2618891 C1.49986045,10.6760037 1.51676309,11.1154723 1.44865541,11.5599122 C1.41236445,11.7950577 1.47102654,12.0013693 1.67833241,12.131619 C1.87867837,12.2578917 2.09692124,12.2817542 2.30969561,12.1490188 C2.77252958,11.8601826 3.29949414,11.7423613 3.81303602,11.5942146 C4.32210367,11.4470622 4.78742332,11.2313051 5.19308661,10.8828125 C5.50876821,10.611376 5.87018635,10.4085443 6.26789546,10.279786 C7.17168939,9.98597843 7.99295869,10.1470506 8.71082362,10.7659854 C8.95690613,10.9777655 9.16520627,11.2332936 9.3884205,11.4709248 C9.55993255,11.653871 9.6439486,11.6498939 9.79358665,11.4465651 C9.80452365,11.4321482 9.8119807,11.4152455 9.82987761,11.3849202 C9.93974475,11.5017472 10.0302236,11.606643 10.1291537,11.7025903 C10.465715,12.0287118 10.7982993,12.357319 11.0394104,12.7649708 C11.1313806,12.9200773 11.2089339,13.0876123 11.3227781,13.2253191 C11.5126842,13.4559903 11.7811379,13.5758002 12.0600314,13.666279 C12.7321598,13.8845219 13.4142309,13.92131 14.103759,13.7627235 C14.5133994,13.6682676 14.8320638,13.4579789 15.0602494,13.0836352 C15.4465244,12.4473006 15.8740617,11.8358229 16.2702794,11.205454 C16.6341832,10.6262901 16.9518534,10.0242579 17.0567491,9.33472977 C17.067189,9.26363927 17.0850859,9.19404018 17.1,9.12394395 L17.1,8.55024857 C17.048795,8.30665174 17.012504,8.05858069 16.943402,7.81995523" id="Fill-1"></path>
                <path d="M12.6,15.4139388 C12.6,15.4139388 15.1416437,14.9835057 14.8222325,15.795858 C14.5028213,16.6082103 14.5025429,17.2529999 13.8155445,17.2530001 C13.128546,17.2530002 12.6,15.4139388 12.6,15.4139388 Z" id="Path-921"></path>
            </g>
        </g>
    </g>
</svg>