<?xml version="1.0" encoding="UTF-8" standalone="no"?>
<svg width="16px" height="16px" viewBox="0 0 16 16" version="1.1" xmlns="http://www.w3.org/2000/svg" xmlns:xlink="http://www.w3.org/1999/xlink">
    <g id="Page-1" stroke="none" stroke-width="1" fill="none" fill-rule="evenodd">
        <g id="ic_cake" fill="#4C4C4C">
            <path d="M11.1818182,6.90909091 L8.45454545,6.90909091 L8.45454545,5.81818182 L7.36363636,5.81818182 L7.36363636,6.90909091 L4.63636364,6.90909091 C3.73381818,6.90909091 3,7.64290909 3,8.54545455 L3,9.38545455 C3,9.97454545 3.48,10.4545455 4.06909091,10.4545455 C4.35563636,10.4545455 4.62254545,10.3425455 4.82472727,10.1410909 L5.992,8.976 L7.15636364,10.1381818 C7.56,10.5418182 8.264,10.5418182 8.66690909,10.1381818 L9.83490909,8.976 L10.9992727,10.1381818 C11.2007273,10.3396364 11.4683636,10.4516364 11.7549091,10.4516364 C12.344,10.4516364 12.824,9.97163636 12.824,9.38254545 L12.824,8.54545455 C12.8181818,7.64290909 12.0843636,6.90909091 11.1818182,6.90909091 M10.4152727,10.7192727 L9.82909091,10.1323636 L9.24,10.7192727 C8.528,11.4305455 7.28436364,11.4305455 6.57309091,10.7192727 L5.98618182,10.1323636 L5.39709091,10.7192727 C5.04509091,11.0763636 4.57381818,11.2727273 4.06909091,11.2727273 C3.67345455,11.2727273 3.30545455,11.1469091 3,10.9374545 L3,13.4545455 C3,13.7549091 3.24509091,14 3.54545455,14 L12.2727273,14 C12.5730909,14 12.8181818,13.7549091 12.8181818,13.4545455 L12.8181818,10.9374545 C12.5127273,11.1469091 12.1469091,11.2727273 11.7490909,11.2727273 C11.2443636,11.2727273 10.7730909,11.0763636 10.4152727,10.7192727 M7.90909091,5.27272727 C8.512,5.27272727 9,4.78472727 9,4.18181818 C9,3.97745455 8.94254545,3.78327273 8.84436364,3.61963636 L7.90909091,2 L6.97381818,3.61963636 C6.87563636,3.78327273 6.81818182,3.97745455 6.81818182,4.18181818 C6.81818182,4.78472727 7.30618182,5.27272727 7.90909091,5.27272727" id="Page-1"></path>
        </g>
    </g>
</svg>
