<?xml version="1.0" encoding="UTF-8" standalone="no"?>
<svg width="24px" height="24px" viewBox="0 0 24 24" version="1.1" xmlns="http://www.w3.org/2000/svg" xmlns:xlink="http://www.w3.org/1999/xlink">
    <!-- Generator: Sketch 3.8.3 (29802) - http://www.bohemiancoding.com/sketch -->
    <title>ic_directions</title>
    <desc>Created with Sketch.</desc>
    <defs></defs>
    <g id="Page-1" stroke="none" stroke-width="1" fill="none" fill-rule="evenodd">
        <g id="ic_directions">
            <g id="ic_directions_black_24dp">
                <path d="M21.71,11.29 L12.71,2.29 C12.32,1.9 11.69,1.9 11.3,2.29 L2.3,11.29 C1.91,11.68 1.91,12.31 2.3,12.7 L11.3,21.7 C11.69,22.09 12.32,22.09 12.71,21.7 L21.71,12.7 C22.1,12.32 22.1,11.69 21.71,11.29 L21.71,11.29 Z M14,14.5 L14,12 L10,12 L10,15 L8,15 L8,11 C8,10.45 8.45,10 9,10 L14,10 L14,7.5 L17.5,11 L14,14.5 L14,14.5 Z" id="Shape" fill="#4285F4"></path>
                <polygon id="Shape" points="0 0 24 0 24 24 0 24"></polygon>
            </g>
        </g>
    </g>
</svg>