<?xml version="1.0" encoding="UTF-8" standalone="no"?>
<svg width="18px" height="18px" viewBox="0 0 18 18" version="1.1" xmlns="http://www.w3.org/2000/svg" xmlns:xlink="http://www.w3.org/1999/xlink">
    <g id="Page-1" stroke="none" stroke-width="1" fill="none" fill-rule="evenodd" opacity="0.3">
        <g id="ic_search" fill="#000000">
            <path d="M12.8658167,11.3201075 L12.0487108,11.3201075 L11.7657081,11.0381339 C12.7680521,9.86804642 13.3783088,8.35115202 13.3783088,6.68915442 C13.3783088,2.99468298 10.3836259,0 6.68915442,0 C2.99468298,0 0,2.99468298 0,6.68915442 C0,10.3836259 2.99468298,13.3783088 6.68915442,13.3783088 C8.35012292,13.3783088 9.86701732,12.7690812 11.0371048,11.7657081 L11.3211366,12.0487108 L11.3211366,12.8637585 L16.4645818,18 L17.9989709,16.4656109 L12.8658167,11.3201075 L12.8658167,11.3201075 Z M6.68915442,11.3201075 C4.13183923,11.3201075 2.05820136,9.24646961 2.05820136,6.68915442 C2.05820136,4.13183923 4.13183923,2.05820136 6.68915442,2.05820136 C9.24646961,2.05820136 11.3201075,4.13183923 11.3201075,6.68915442 C11.3201075,9.24646961 9.24646961,11.3201075 6.68915442,11.3201075 L6.68915442,11.3201075 Z" id="ic_magnifying"></path>
        </g>
    </g>
</svg>
