<?xml version="1.0" encoding="utf-8"?>
<!-- Generator: Adobe Illustrator 19.1.0, SVG Export Plug-In . SVG Version: 6.00 Build 0)  -->
<svg version="1.1" id="Layer_1" xmlns="http://www.w3.org/2000/svg" xmlns:xlink="http://www.w3.org/1999/xlink" x="0px" y="0px"
	 viewBox="-297 389 16 16" style="enable-background:new -297 389 16 16;" xml:space="preserve">
<style type="text/css">
	.st0{fill:#4C4C4C;}
</style>
<path class="st0" d="M-294.4,392c0.4,0,0.8,0.4,0.8,0.8s-0.4,0.8-0.8,0.8c-0.4,0-0.8-0.4-0.8-0.8S-294.8,392-294.4,392z M-284.7,392
	c0.4,0,0.8,0.4,0.8,0.8s-0.4,0.8-0.8,0.8c-0.4,0-0.8-0.4-0.8-0.8S-285.1,392-284.7,392z M-284.9,394.7c-1.2-0.1-2.3,0.7-2.4,1.9
	c-0.2,1.1-1.1,1.9-2.2,1.9c-1.1,0-2.1-0.8-2.2-1.9c-0.1-1.2-1.2-2.1-2.3-1.9c-1.2,0.1-2.1,1.1-2,2.3c0.4,3.4,3.1,5.9,6.5,5.9
	c3.3,0,6.1-2.5,6.5-5.7C-282.9,396-283.7,394.9-284.9,394.7z"/>
</svg>
