<svg width="34" height="43" viewBox="0 0 34 43" xmlns="http://www.w3.org/2000/svg"><title>sausage</title><g fill="none" fill-rule="evenodd"><path d="M-9-3h48v48H-9z"/><path d="M17.055 27.856v3.127c0 1.686-1.32 3.052-2.948 3.052-1.626 0-2.945-1.366-2.945-3.052v-4.727a17.71 17.71 0 0 0 5.893 1.6zm-7.3-2.326v5.692c0 2.251 1.597 4.098 3.676 4.437v6.225c0 .386.303.7.676.7a.69.69 0 0 0 .678-.7v-6.225c2.08-.339 3.676-2.186 3.676-4.437v-3.306c4.653-.014 9.101-2.034 10.358-3.115 1.37-1.175 1.85-2.006 1.938-3.608.033-.627-.106-1.545-.516-2.45l.59-.031 2.824-.147-1.606-2.34-1.606-2.338-1.218 2.487-.291.596c-.727-.628-1.704-1.096-3.01-1.196-1.665-.132-2.93.601-2.93.601s-2.282 1.616-5.152 1.392c-2.873-.226-7.82-2.888-7.528-8.258.143-2.628-1.402-4.564-3.427-5.29l.358-.535L8.79 1.386l-2.828-.222-2.826-.22 1.282 2.518.24.47C2.506 4.17.187 5.886.037 8.6c-.382 7.08 3.824 13.575 9.718 16.93z" fill-opacity=".67" fill="#000"/></g></svg>